<svg width="30" height="24" viewBox="0 0 30 24" fill="none" xmlns="http://www.w3.org/2000/svg">
<path d="M27.5 0.75H2.5C1.125 0.75 0 1.875 0 3.25V20.75C0 22.125 1.125 23.25 2.5 23.25H27.5C28.875 23.25 29.9875 22.125 29.9875 20.75L30 3.25C30 1.875 28.875 0.75 27.5 0.75ZM10 4.5C12.075 4.5 13.75 6.175 13.75 8.25C13.75 10.325 12.075 12 10 12C7.925 12 6.25 10.325 6.25 8.25C6.25 6.175 7.925 4.5 10 4.5ZM17.5 19.5H2.5V18.25C2.5 15.75 7.5 14.375 10 14.375C12.5 14.375 17.5 15.75 17.5 18.25V19.5ZM22.3125 14.5H24.3625L26.25 17L23.7625 19.4875C22.125 18.2625 20.9125 16.5125 20.35 14.5C20.125 13.7 20 12.8625 20 12C20 11.1375 20.125 10.3 20.35 9.5C20.9125 7.475 22.125 5.7375 23.7625 4.5125L26.25 7L24.3625 9.5H22.3125C22.0375 10.2875 21.875 11.125 21.875 12C21.875 12.875 22.0375 13.7125 22.3125 14.5Z" fill="black"/>
</svg>
